{"title":"Paranoid Activity 2 *2011* [DVDRip.XviD-miguel] [ENG]","uid":6526363,"size":734779652,"categoryP":"video","categoryS":"movies","magnet":"?xt=urn:btih:921ebc93efa7b0408307dcc5352bd6b1016a6eef&amp;dn=Paranoid+Activity+2+%2A2011%2A+%5BDVDRip.XviD-miguel%5D+%5BENG%5D&amp;tr=udp%3A%2F%2Ftracker.openbittorrent.com%3A80&amp;tr=udp%3A%2F%2Fopen.demonii.com%3A1337&amp;tr=udp%3A%2F%2Ftracker.coppersurfer.tk%3A6969&amp;tr=udp%3A%2F%2Fexodus.desync.com%3A6969","seeders":0,"leechers":1,"uploader":"miguel1983","files":-1,"time":1310173524,"description":" &lt;a href=&quot;http://img837.imageshack.us/img837/843/1qo4lpc4mck.jpg&quot; rel=&quot;nofollow&quot; target=&quot;_NEW&quot;&gt;http://img837.imageshack.us/img837/843/1qo4lpc4mck.jpg&lt;/a&gt;\n\nCountry.......: USA\nGenre.........: Horror\nDate release..: 15.03.2011 [World]\nDirector......: Kevin Clark, Manzie Jones\nWriters.......: Manzie Jones, Kevin Clark\nDuration......: 78 min.\nMore..........: http://www.imdb.com/title/tt1754334\nTrailer.......:\n\nPilot :\nThree college friends move into a small rental house in the middle of a cold and dark Alaskan winter. During a house warming party, a psychic medium calls forth a ghostly presence that increasingly becomes hostile toward the three. With very few options on the table, they must decide to confront the hostile presence, or die.\n\nCats :\nNatasha Blasick   \t ...  \tVivian\nAndrew Bassano Brewer \t... \tPsychic Medium\nManzie Jones \t... \tJonzi\nJennifer Sommerfeld \t... \tBridget\nJenny Sommerfeld \t... \tBridget \n\nData Technical :\n!!! SAMPLE !!!\nAudio.....: English\nSubtitles.: None\nFormat                           : AVI\nFormat/Info                      : Audio Video Interleave\nFormat profile                   : OpenDML\nFile size                        : 696 MiB\nDuration                         : 1h 17mn\nOverall bit rate                 : 1 249 Kbps\nWriting application              : AVI-Mux GUI 1.17.8.3, Feb 16 201019:42:50\nVideo\nID                               : 0\nFormat                           : MPEG-4 Visual\nFormat profile                   : Advanced Simple@L5\nFormat settings, BVOP            : No\nFormat settings, QPel            : No\nFormat settings, GMC             : No warppoints\nFormat settings, Matrix          : Custom\nCodec ID                         : XVID\nCodec ID/Hint                    : XviD\nDuration                         : 1h 17mn\nBit rate                         : 1 135 Kbps\nWidth                            : 640 pixels\nHeight                           : 368 pixels\nDisplay aspect ratio             : 16:9\nFrame rate                       : 29.970 fps\nColor space                      : YUV\nChroma subsampling               : 4:2:0\nBit depth                        : 8 bits\nScan type                        : Progressive\nBits/(Pixel*Frame)               : 0.161\nStream size                      : 633 MiB (91%)\nWriting library                  : XviD 58\nAudio\nID                               : 1\nFormat                           : MPEG Audio\nFormat version                   : Version 1\nFormat profile                   : Layer 3\nMode                             : Joint stereo\nMode extension                   : MS Stereo\nCodec ID                         : 55\nCodec ID/Hint                    : MP3\nDuration                         : 1h 17mn\nBit rate mode                    : Variable\nBit rate                         : 104 Kbps\nChannel(s)                       : 2 channels\nSampling rate                    : 48.0 KHz\nStream size                      : 57.8 MiB (8%)\nAlignment                        : Aligned on interleaves\nInterleave, duration             : 24 ms (0.72 video frame)\nInterleave, preload duration     : 59 ms\nWriting library                  : LAME3.98.2\n\nScreen : &lt;a href=&quot;\nhttp://img534.imageshack.us/img534/39/paranoidactivity22011s1.jpg&quot; rel=&quot;nofollow&quot; target=&quot;_NEW&quot;&gt;\nhttp://img534.imageshack.us/img534/39/paranoidactivity22011s1.jpg&lt;/a&gt; &lt;a href=&quot;\nhttp://img824.imageshack.us/img824/7173/paranoidactivity22011s2.jpg&quot; rel=&quot;nofollow&quot; target=&quot;_NEW&quot;&gt;\nhttp://img824.imageshack.us/img824/7173/paranoidactivity22011s2.jpg&lt;/a&gt; &lt;a href=&quot;\nhttp://img853.imageshack.us/img853/3858/paranoidactivity22011s3.jpg&quot; rel=&quot;nofollow&quot; target=&quot;_NEW&quot;&gt;\nhttp://img853.imageshack.us/img853/3858/paranoidactivity22011s3.jpg&lt;/a&gt; &lt;a href=&quot;\nhttp://img189.imageshack.us/img189/5388/paranoidactivity22011s4.jpg&quot; rel=&quot;nofollow&quot; target=&quot;_NEW&quot;&gt;\nhttp://img189.imageshack.us/img189/5388/paranoidactivity22011s4.jpg&lt;/a&gt; &lt;a href=&quot;\nhttp://img62.imageshack.us/img62/6006/paranoidactivity22011s5.jpg&quot; rel=&quot;nofollow&quot; target=&quot;_NEW&quot;&gt;\nhttp://img62.imageshack.us/img62/6006/paranoidactivity22011s5.jpg&lt;/a&gt;","torrent":{"xt":"urn:btih:921ebc93efa7b0408307dcc5352bd6b1016a6eef","amp;dn":"Paranoid+Activity+2+%2A2011%2A+%5BDVDRip.XviD-miguel%5D+%5BENG%5D","amp;tr":["udp%3A%2F%2Ftracker.openbittorrent.com%3A80","udp%3A%2F%2Fopen.demonii.com%3A1337","udp%3A%2F%2Ftracker.coppersurfer.tk%3A6969","udp%3A%2F%2Fexodus.desync.com%3A6969"],"infoHash":"921ebc93efa7b0408307dcc5352bd6b1016a6eef","infoHashBuffer":{"type":"Buffer","data":[146,30,188,147,239,167,176,64,131,7,220,197,53,43,214,177,1,106,110,239]},"announce":[],"urlList":[]}}